<svg width="200" height="100" viewBox="current" fill="none" xmlns="http://www.w3.org/2000/svg">
<path d="M8.43621 33.4167C7.75695 34.0989 7.33489 34.9952 7.24174 35.9534C7.14859 36.9116 7.39011 37.8725 7.92525 38.6727C8.46039 39.473 9.25612 40.0632 10.1772 40.3432C11.0983 40.6231 12.0879 40.5755 12.9779 40.2083C13.4843 39.9818 13.949 39.672 14.3529 39.2917C14.7277 38.9077 15.0248 38.455 15.2279 37.9583C15.4661 37.4507 15.5803 36.8937 15.5612 36.3333C15.5566 35.2402 15.1226 34.1928 14.3529 33.4167C13.9655 33.0261 13.5047 32.7162 12.9969 32.5046C12.4892 32.2931 11.9446 32.1842 11.3945 32.1842C10.8445 32.1842 10.2999 32.2931 9.79214 32.5046C9.28439 32.7162 8.82355 33.0261 8.43621 33.4167ZM11.3945 11.3333C12.4996 11.3333 13.5594 11.7723 14.3408 12.5537C15.1222 13.3351 15.5612 14.3949 15.5612 15.5C15.5612 16.6051 15.1222 17.6649 14.3408 18.4463C13.5594 19.2277 12.4996 19.6667 11.3945 19.6667C10.2895 19.6667 9.22967 20.1057 8.44826 20.8871C7.66686 21.6685 7.22787 22.7283 7.22787 23.8333C7.22787 24.9384 7.66686 25.9982 8.44826 26.7796C9.22967 27.561 10.2895 28 11.3945 28C13.5884 27.9986 15.7433 27.4198 17.6426 26.3218C19.5419 25.2238 21.1188 23.6453 22.2148 21.7448C23.3109 19.8443 23.8874 17.6889 23.8865 15.495C23.8856 13.3011 23.3074 11.1461 22.2098 9.24653C21.1123 7.34694 19.5341 5.76966 17.6339 4.67318C15.7337 3.5767 13.5784 2.99965 11.3845 3C9.19064 3.00035 7.03552 3.5781 5.13566 4.67518C3.23579 5.77227 1.65815 7.35005 0.561209 9.25C0.285712 9.72555 0.10702 10.2509 0.0354227 10.7958C-0.0361747 11.3407 0.000737399 11.8944 0.144034 12.425C0.287331 12.9556 0.534179 13.4526 0.870364 13.8874C1.20655 14.3221 1.62543 14.6861 2.10287 14.9583C3.05962 15.5015 4.19236 15.6443 5.25398 15.3555C6.31559 15.0667 7.21988 14.3697 7.76954 13.4167C8.13664 12.7808 8.66524 12.2533 9.30182 11.8874C9.93839 11.5216 10.6603 11.3304 11.3945 11.3333ZM61.3945 15.5H36.3945C35.2895 15.5 34.2297 15.939 33.4483 16.7204C32.6669 17.5018 32.2279 18.5616 32.2279 19.6667C32.2279 20.7717 32.6669 21.8315 33.4483 22.6129C34.2297 23.3943 35.2895 23.8333 36.3945 23.8333H61.3945C62.4996 23.8333 63.5594 24.2723 64.3408 25.0537C65.1222 25.8351 65.5612 26.8949 65.5612 28V68.5L59.0195 62.4583C58.2511 61.7389 57.2388 61.337 56.1862 61.3333H19.7279C18.6228 61.3333 17.563 60.8943 16.7816 60.1129C16.0002 59.3315 15.5612 58.2717 15.5612 57.1667V53C15.5612 51.8949 15.1222 50.8351 14.3408 50.0537C13.5594 49.2723 12.4996 48.8333 11.3945 48.8333C10.2895 48.8333 9.22967 49.2723 8.44826 50.0537C7.66686 50.8351 7.22787 51.8949 7.22787 53V57.1667C7.22787 60.4819 8.54483 63.6613 10.889 66.0055C13.2333 68.3497 16.4127 69.6667 19.7279 69.6667H54.5612L67.0612 81.0417C67.7871 81.7233 68.7331 82.1224 69.7279 82.1667C70.2993 82.1604 70.8646 82.0474 71.3945 81.8333C72.1399 81.508 72.7737 80.9718 73.2179 80.2906C73.6622 79.6095 73.8974 78.8132 73.8945 78V28C73.8945 24.6848 72.5776 21.5054 70.2334 19.1612C67.8892 16.817 64.7098 15.5 61.3945 15.5Z" fill="current"/>
<path d="M130.016 31.9844L121.812 73H112.633L114.234 59.1719C109.156 68.3906 102.802 73 95.1719 73C87.2812 73 84.2214 68.5599 85.9922 59.6797L91.5391 31.9844H101.891L96.3438 59.7969C95.6927 63.026 97.2292 64.6406 100.953 64.6406C105.875 64.6406 110.797 60.3047 115.719 51.6328L119.664 31.9844H130.016ZM131.617 73L139.82 31.9844H149L147.516 45.3438C152.203 36.4375 157.516 31.9844 163.453 31.9844C171.266 31.9844 174.273 36.4635 172.477 45.4219C177.711 36.4635 183.271 31.9844 189.156 31.9844C197.542 31.9844 200.693 37.1797 198.609 47.5703L193.531 73H183.18L188.336 47.1797C189.247 42.6224 188.167 40.3438 185.094 40.3438C180.719 40.3438 176.24 44.7188 171.656 53.4688L167.75 73H157.398L162.555 47.2969C163.466 42.6615 162.411 40.3438 159.391 40.3438C154.807 40.3438 150.302 44.7188 145.875 53.4688L141.969 73H131.617ZM250.016 31.9844L241.812 73H232.633L234.234 59.1719C229.156 68.3906 222.802 73 215.172 73C207.281 73 204.221 68.5599 205.992 59.6797L211.539 31.9844H221.891L216.344 59.7969C215.693 63.026 217.229 64.6406 220.953 64.6406C225.875 64.6406 230.797 60.3047 235.719 51.6328L239.664 31.9844H250.016ZM251.617 73L259.82 31.9844H269L267.398 45.8125C272.477 36.5938 278.831 31.9844 286.461 31.9844C294.352 31.9844 297.411 36.4245 295.641 45.3047L290.094 73H279.742L285.289 45.1875C285.94 41.9583 284.404 40.3438 280.68 40.3438C275.758 40.3438 270.836 44.6797 265.914 53.3516L261.969 73H251.617ZM321.422 17.1406L319.781 25.3438H309.43L311.07 17.1406H321.422ZM318.453 31.9844L310.25 73H299.898L308.102 31.9844H318.453ZM329.586 25.3438H337.242L337.477 31.9844H347.008L345.367 40.1875H336.969L333.18 59.0547C332.424 62.8828 333.701 64.7969 337.008 64.7969H340.445L338.805 73H330.367C323.492 73 320.797 69.3151 322.281 61.9453L329.586 25.3438ZM377.516 59.1719C372.438 68.3906 366.083 73 358.453 73C350.562 73 347.503 68.5599 349.273 59.6797L354.82 31.9844H365.172L359.625 59.7969C358.974 63.026 360.51 64.6406 364.234 64.6406C369.156 64.6406 374.078 60.3047 379 51.6328L382.945 31.9844H393.297L385.094 73C383.115 82.8958 374.794 87.8438 360.133 87.8438C355.081 87.8438 350.732 87.1927 347.086 85.8906L348.727 77.6875C352.451 78.9896 356.826 79.6406 361.852 79.6406C369.56 79.6406 373.857 77.4271 374.742 73L377.516 59.1719Z" fill="current"/>
</svg>
